<svg width="54" height="54" viewBox="0 0 54 54" fill="none" xmlns="http://www.w3.org/2000/svg">
	<path d="M48.4608 27C48.4608 38.8779 38.84 48.5 26.9804 48.5C15.1209 48.5 5.5 38.8779 5.5 27C5.5 15.1221 15.1209 5.5 26.9804 5.5C38.84 5.5 48.4608 15.1221 48.4608 27Z" fill="#CFE2F8" stroke="#CFE2F8" stroke-width="11" />
	<path d="M24.6796 12.4775C27.1916 8.34049 32.5791 7.02455 36.7128 9.53821C40.8466 12.0519 42.1612 17.4433 39.6492 21.5803L31.6724 34.7169C29.1603 38.8538 23.7728 40.1698 19.6391 37.6561C15.5053 35.1425 14.1907 29.751 16.7027 25.6141L24.6796 12.4775Z" fill="white" />
	<path fill-rule="evenodd" clip-rule="evenodd" d="M30.2892 33.8758L38.266 20.7392C40.3138 17.3667 39.2421 12.9716 35.8723 10.9225C32.5025 8.87335 28.1106 9.94611 26.0627 13.3186L18.0859 26.4552C16.0381 29.8276 17.1098 34.2227 20.4796 36.2718C23.8495 38.321 28.2414 37.2482 30.2892 33.8758ZM36.7128 9.53821C32.5791 7.02455 27.1916 8.34049 24.6796 12.4775L16.7027 25.6141C14.1907 29.751 15.5053 35.1425 19.6391 37.6561C23.7728 40.1698 29.1603 38.8538 31.6724 34.7169L39.6492 21.5803C42.1612 17.4433 40.8466 12.0519 36.7128 9.53821Z" fill="black" />
	<path fill-rule="evenodd" clip-rule="evenodd" d="M31.4389 19.6737C31.817 19.9122 31.9304 20.4122 31.6921 20.7907L16.1192 45.5232C15.881 45.9017 15.3813 46.0151 15.0031 45.7767C14.625 45.5383 14.5116 45.0382 14.7499 44.6598L30.3228 19.9272C30.561 19.5488 31.0607 19.4353 31.4389 19.6737Z" fill="black" />
	<path fill-rule="evenodd" clip-rule="evenodd" d="M33.1051 30.9949C33.1775 31.3606 32.94 31.7158 32.5746 31.7882C27.7347 32.7478 25.313 32.1394 24.2687 31.4044C23.9641 31.19 23.8908 30.7689 24.105 30.464C24.3193 30.159 24.74 30.0857 25.0447 30.3001C25.6271 30.71 27.5811 31.4021 32.3126 30.464C32.6779 30.3915 33.0328 30.6292 33.1051 30.9949Z" fill="black" />
</svg>
