<svg width="142px" height="48px" viewBox="0 0 1188 402" fill="none" xmlns="http://www.w3.org/2000/svg">
<ellipse cx="201.289" cy="201" rx="201.289" ry="201" fill="#CFE2F8"></ellipse>
<path fill="white" d="M184.113 92.8844C202.853 62.0885 243.048 52.2957 273.891 71.0114V71.0114C304.735 89.7272 314.547 129.864 295.808 160.66L236.302 258.45C217.562 289.246 177.367 299.039 146.524 280.323V280.323C115.68 261.607 105.868 221.47 124.608 190.674L184.113 92.8844Z"></path>
<path fill="black" fill-rule="evenodd" clip-rule="evenodd" d="M225.981 252.188L285.487 154.398C300.763 129.293 292.765 96.5732 267.621 81.3161C242.477 66.059 209.71 74.0421 194.434 99.1469L134.928 196.937C119.652 222.041 127.651 254.761 152.794 270.018C177.938 285.275 210.705 277.292 225.981 252.188ZM273.891 71.0114C243.048 52.2957 202.853 62.0885 184.113 92.8844L124.608 190.674C105.868 221.47 115.68 261.607 146.524 280.323C177.367 299.039 217.562 289.246 236.302 258.45L295.808 160.66C314.547 129.864 304.735 89.7272 273.891 71.0114Z"></path>
<path fill="black" fill-rule="evenodd" clip-rule="evenodd" d="M234.549 146.463C237.371 148.239 238.217 151.962 236.44 154.779L120.259 338.898C118.481 341.715 114.753 342.559 111.931 340.784C109.11 339.009 108.264 335.286 110.041 332.468L226.222 148.35C227.999 145.532 231.728 144.688 234.549 146.463Z"></path>
<path fill="black" fill-rule="evenodd" clip-rule="evenodd" d="M246.982 230.745C247.522 233.466 245.75 236.109 243.024 236.648C206.916 243.785 188.848 239.256 181.056 233.786C178.783 232.19 178.236 229.056 179.834 226.787C181.433 224.518 184.571 223.972 186.845 225.568C191.19 228.619 205.769 233.771 241.068 226.793C243.794 226.254 246.442 228.023 246.982 230.745Z"></path>
<path fill="white" d="M1147.76 294.16H1163.23C1166.16 294.16 1169.01 294.661 1171.94 295.58C1174.86 296.582 1177.54 298.003 1179.89 300.008C1182.23 301.929 1184.15 304.352 1185.66 307.359C1187.08 310.283 1187.83 313.625 1187.83 317.468C1187.83 321.311 1187.08 324.819 1185.66 327.66C1184.24 330.584 1182.31 333.006 1179.89 335.011C1177.54 336.933 1174.95 338.353 1171.94 339.355C1169.01 340.358 1166.08 340.776 1163.23 340.776H1147.76V294.16ZM1152.44 336.599H1161.9C1165.41 336.599 1168.51 336.014 1171.1 334.928C1173.78 333.842 1175.95 332.421 1177.63 330.667C1179.38 328.829 1180.64 326.824 1181.47 324.569C1182.4 322.313 1182.81 319.974 1182.81 317.551C1182.81 315.128 1182.4 312.789 1181.47 310.534C1180.64 308.278 1179.38 306.19 1177.63 304.435C1175.87 302.597 1173.69 301.177 1171.1 300.091C1168.51 299.005 1165.41 298.42 1161.9 298.42H1152.44V336.682V336.599Z"></path>
<path fill="white" d="M1083.75 341.945C1080.23 341.945 1077.3 341.36 1075.13 340.191C1072.87 338.938 1071.11 337.434 1069.77 335.596C1068.43 333.758 1067.51 331.753 1067.01 329.581C1066.51 327.409 1066.26 325.321 1066.26 323.399V294.16H1071.03V322.898C1071.03 324.819 1071.28 326.657 1071.7 328.412C1072.12 330.166 1072.87 331.753 1073.79 333.173C1074.79 334.51 1076.13 335.68 1077.72 336.515C1079.31 337.35 1081.32 337.768 1083.75 337.768C1086.17 337.768 1088.1 337.35 1089.77 336.515C1091.36 335.596 1092.7 334.51 1093.7 333.173C1094.71 331.753 1095.46 330.166 1095.88 328.412C1096.3 326.574 1096.55 324.736 1096.55 322.898V294.16H1101.32V323.399C1101.32 325.321 1101.07 327.409 1100.48 329.581C1099.98 331.753 1099.06 333.758 1097.8 335.596C1096.46 337.434 1094.71 338.938 1092.36 340.191C1090.1 341.36 1087.26 341.945 1083.83 341.945H1083.75Z"></path>
<path fill="white" d="M1022.33 317.467C1022.33 321.06 1021.74 324.318 1020.49 327.325C1019.23 330.333 1017.56 332.922 1015.3 335.095C1013.13 337.267 1010.53 338.937 1007.6 340.191C1004.68 341.444 1001.41 342.028 997.982 342.028C994.551 342.028 991.288 341.444 988.276 340.191C985.347 338.937 982.754 337.267 980.578 335.095C978.403 332.922 976.729 330.333 975.474 327.325C974.219 324.318 973.633 321.06 973.633 317.467C973.633 313.875 974.219 310.617 975.474 307.609C976.729 304.602 978.403 302.012 980.578 299.924C982.754 297.752 985.347 295.997 988.276 294.744C991.288 293.491 994.468 292.906 997.982 292.906C1001.5 292.906 1004.68 293.491 1007.6 294.744C1010.62 295.997 1013.21 297.668 1015.3 299.924C1017.48 302.096 1019.23 304.686 1020.49 307.609C1021.74 310.617 1022.33 313.875 1022.33 317.467ZM1017.31 317.467C1017.31 314.71 1016.89 312.121 1015.97 309.698C1015.05 307.275 1013.8 305.103 1012.12 303.265C1010.45 301.344 1008.44 299.84 1006.01 298.754C1003.67 297.668 1000.99 297.083 997.982 297.083C994.97 297.083 992.292 297.668 989.866 298.754C987.523 299.84 985.431 301.344 983.758 303.265C982.084 305.103 980.829 307.275 979.909 309.698C978.988 312.121 978.57 314.71 978.57 317.467C978.57 320.224 978.988 322.814 979.909 325.237C980.745 327.659 982.084 329.831 983.758 331.669C985.431 333.507 987.439 335.011 989.866 336.097C992.292 337.183 994.97 337.768 997.982 337.768C1000.99 337.768 1003.67 337.183 1006.01 336.097C1008.44 335.011 1010.45 333.507 1012.12 331.669C1013.8 329.831 1015.05 327.659 1015.97 325.237C1016.89 322.814 1017.31 320.224 1017.31 317.467Z"></path>
<path fill="white" d="M914.896 336.599H936.65V340.776H910.126V294.16H914.896V336.599Z"></path>
<path fill="white" d="M867.704 333.257C866.868 334.426 865.947 335.596 864.776 336.598C863.688 337.684 862.349 338.603 860.843 339.355C859.421 340.107 857.747 340.775 855.99 341.193C854.233 341.694 852.309 341.945 850.217 341.945C846.703 341.945 843.44 341.36 840.427 340.107C837.415 338.854 834.821 337.183 832.73 335.011C830.554 332.839 828.881 330.249 827.626 327.242C826.454 324.234 825.868 320.976 825.868 317.384C825.868 313.792 826.454 310.533 827.709 307.526C828.964 304.518 830.638 301.929 832.813 299.84C834.989 297.668 837.582 295.914 840.511 294.661C843.523 293.408 846.703 292.823 850.217 292.823C851.974 292.823 853.564 292.99 855.237 293.324C856.911 293.658 858.5 294.159 859.923 294.828C861.345 295.413 862.684 296.248 863.856 297.167C865.027 298.086 866.031 299.088 866.784 300.174L862.851 303.098C862.349 302.346 861.68 301.595 860.843 300.843C860.09 300.091 859.086 299.422 857.998 298.838C856.911 298.253 855.656 297.835 854.401 297.418C853.146 297.083 851.723 296.916 850.217 296.916C847.205 296.916 844.444 297.501 842.017 298.587C839.674 299.673 837.583 301.177 835.909 303.098C834.236 304.936 832.981 307.108 832.06 309.531C831.14 311.954 830.721 314.543 830.721 317.3C830.721 320.057 831.14 322.647 832.06 325.07C832.981 327.492 834.319 329.664 835.993 331.586C837.666 333.424 839.674 334.927 842.101 336.014C844.527 337.1 847.205 337.684 850.217 337.684C852.894 337.684 855.488 337.1 857.915 336.014C860.341 334.927 862.349 333.173 864.023 330.75L867.704 333.09V333.257Z"></path>
<path fill="white" d="M1163.9 211.704C1164.57 210.368 1166 209.449 1167.5 209.449H1178.88C1181.56 209.449 1183.48 212.122 1182.4 214.628C1177.21 226.909 1169.26 236.934 1158.47 244.453C1146.25 253.057 1132.78 257.401 1117.97 257.652C1099.23 257.903 1082.74 251.136 1068.35 237.268C1053.96 223.15 1046.51 206.608 1046.26 187.143C1045.76 166.759 1052.95 149.049 1067.85 134.345C1082.91 119.475 1100.48 112.541 1120.81 113.711C1139.05 114.88 1154.87 122.315 1168.25 136.267C1181.22 149.968 1187.67 165.256 1187.67 182.298V188.229C1187.67 190.401 1185.91 192.156 1183.73 192.156H1069.35C1067.01 192.156 1065.17 194.161 1065.59 196.5C1067.68 208.279 1073.29 218.304 1082.49 226.241C1092.78 235.096 1104.75 239.691 1118.72 239.44C1139.47 239.189 1154.45 229.916 1163.9 211.704ZM1066.09 170.769C1065.42 173.192 1067.18 175.364 1069.86 175.364H1164.91C1167.42 175.364 1169.26 173.025 1168.59 170.686C1165.58 160.076 1159.97 151.388 1151.77 144.454C1142.4 136.517 1131.19 132.424 1117.97 132.257C1104.75 132.006 1093.28 136.1 1083.41 144.036C1074.79 150.97 1069.1 159.909 1066.09 170.769Z"></path>
<path fill="white" d="M1032.71 241.779C1037.14 242.241 1038.48 244.286 1038.48 247.126V252.807C1038.48 255.647 1036.22 257.903 1033.46 257.736C1002.5 256.315 987.104 241.612 987.104 213.459V66.6771C987.104 63.8367 989.364 61.5811 992.125 61.5811H1001.16C1003.92 61.5811 1006.18 63.8367 1006.18 66.6771V106.443C1006.18 109.283 1008.44 111.539 1011.2 111.539H1033.54C1036.3 111.539 1038.56 113.794 1038.56 116.635V124.32C1038.56 127.161 1036.3 129.416 1033.54 129.416H1011.2C1008.44 129.416 1006.18 131.672 1006.18 134.512V210.201C1006.18 229.499 1015.05 239.941 1032.71 241.779C1032.45 241.696 1032.96 241.779 1032.71 241.779Z"></path>
<path fill="white" d="M939.328 61.8315C942.089 61.8315 944.265 64.0872 944.265 66.7605V89.4837C944.265 92.2405 942.005 94.4126 939.328 94.4126H930.793C928.032 94.4126 925.857 92.157 925.857 89.4837V66.7605C925.857 64.0036 928.116 61.8315 930.793 61.8315H939.328ZM939.328 113.209C942.089 113.209 944.265 115.465 944.265 118.138V248.212C944.265 250.969 942.005 253.141 939.328 253.141H930.793C928.032 253.141 925.857 250.885 925.857 248.212V118.138C925.857 115.381 928.116 113.209 930.793 113.209H939.328Z"></path>
<path fill="white" d="M907.03 235.347C910.875 235.347 911.967 237.519 911.967 240.192V248.212C911.967 250.969 909.708 253.141 907.03 253.141H857.664C828.881 253.141 808.465 236.683 808.465 206.441V66.5935C808.465 63.8366 810.724 61.6646 813.401 61.6646H822.438C825.199 61.6646 827.375 63.9202 827.375 66.5935V210.034C827.375 216.633 830.554 223.066 836.746 229.415C840.678 233.342 847.539 235.347 857.664 235.347C857.664 235.347 904.52 235.347 907.03 235.347Z"></path>
<path fill="white" d="M778.285 240.86C781.13 241.027 783.279 243.283 783.279 245.873V252.974C783.279 255.647 781.104 257.903 778.343 257.903C763.282 257.903 751.233 253.559 741.945 244.703C740.188 243.032 737.511 242.615 735.335 243.868C719.856 252.974 703.373 257.569 685.299 257.569C658.273 257.569 635.096 247.961 615.935 228.83C596.774 209.7 587.152 186.559 587.152 159.575C587.152 132.591 596.774 109.45 615.935 90.3192C635.096 71.1883 658.273 61.5811 685.299 61.5811C712.326 61.5811 735.503 71.1883 754.413 90.3192C773.573 109.45 783.196 132.591 783.196 159.575C783.196 186.559 774.41 207.862 756.755 226.408C754.998 228.246 754.747 231.086 756.504 232.924C761.859 238.688 766.712 240.192 778.259 240.86H778.285ZM741.694 215.38C757.425 199.925 765.29 180.961 765.29 158.906C765.29 136.852 757.425 117.888 741.694 102.433C726.215 86.7269 707.221 78.8741 685.132 78.8741C663.043 78.8741 644.049 86.7269 628.319 102.433C612.839 117.888 604.974 136.852 604.974 158.906C604.974 180.961 612.839 199.925 628.319 215.38C644.049 230.835 663.043 238.688 685.132 238.688C707.221 238.688 726.215 230.835 741.694 215.38Z"></path>
<path fill="white" d="M510.508 257.401C500.049 257.401 490.427 255.898 481.474 252.89C472.605 249.883 464.823 245.622 458.297 240.025C451.771 234.511 446.75 228.079 443.403 220.727C442.985 219.808 442.483 218.722 442.148 217.552C441.897 216.216 441.897 213.793 444.742 212.206C446.75 211.454 450.181 210.034 453.109 209.198C456.038 208.363 458.381 209.282 460.472 213.208C460.807 213.793 461.058 214.378 461.309 214.795C463.736 219.557 467.334 223.734 472.103 227.494C476.872 231.253 482.478 234.093 489.005 236.182C495.531 238.271 502.727 239.273 510.508 239.273C519.127 239.273 526.824 237.853 533.518 235.012C540.212 232.172 545.483 227.995 549.332 222.565C553.181 217.135 555.106 210.451 555.106 202.682C555.106 192.741 551.424 184.219 544.061 177.035C536.698 169.85 525.235 165.339 509.504 163.334C490.427 161.079 475.45 155.147 464.74 145.623C454.03 136.1 448.591 124.404 448.591 110.536C448.591 100.595 451.269 91.99 456.54 84.6384C461.811 77.2867 469.174 71.6059 478.462 67.6795C487.75 63.6695 498.46 61.6646 510.508 61.6646C519.461 61.6646 527.661 63.0847 535.024 65.9251C542.387 68.7655 548.747 72.5249 554.269 77.2032C559.708 81.8815 564.226 86.9775 567.573 92.4912C568.326 93.6608 569.33 95.4987 570.167 97.4202C571.003 99.3416 571.003 102.266 568.41 103.602C566.401 104.688 562.552 106.693 560.042 107.612C556.863 108.865 554.95 107.046 554.436 106.192C553.432 104.521 552.261 102.6 551.591 101.514C549.165 97.7543 546.069 94.2456 542.387 90.9039C538.706 87.5623 534.271 84.889 529.084 82.9675C523.896 81.0461 517.537 79.9601 510.257 79.793C497.372 79.793 486.997 82.5498 479.131 87.98C471.266 93.4102 467.417 101.347 467.417 111.789C467.417 117.303 468.923 122.399 471.852 127.077C474.78 131.756 479.633 135.682 486.411 139.024C493.188 142.365 502.309 144.872 513.688 146.459C534.104 149.383 549.249 155.648 559.122 165.172C568.995 174.696 573.932 187.143 573.932 202.431C573.932 211.203 572.342 219.056 569.163 225.906C565.983 232.757 561.465 238.521 555.691 243.116C549.918 247.794 543.14 251.303 535.359 253.726C527.577 256.148 519.294 257.401 510.508 257.401Z"></path>
</svg>