<svg xmlns="http://www.w3.org/2000/svg" viewBox="0 0 192 54" fill="none" aria-label="Turso logo" class="h-10"><mask id="a" width="29" height="48" x="27" y="0" maskUnits="userSpaceOnUse" style="mask-type:luminance"><path fill="#fff" d="M55.943.621H27.94v47.213h28.003V.62Z"></path></mask><g mask="url(#a)"><path fill="#1EBCA1" d="M27.94 11.464c20.79 0 17.082 8.649 17.082 8.649-.184 5.51-2.23 17.776-2.908 19.077-.679 1.302-4.281 5.033-7.1 6.464 0 0-1.018-1.087-1.641-2.045-.789.938-4.875 4.23-5.433 4.23V11.464Z"></path><path fill="#1EBCA1" d="M45.277 18.616c0 .888-.255 1.492-.255 1.492-.184 5.51-2.23 17.775-2.908 19.077-.679 1.302-4.281 5.033-7.1 6.464 0 0-1.018-1.087-1.641-2.045-.789.938-4.875 4.23-5.433 4.23V18.616h17.337Z"></path><path fill="url(#b)" d="m42.662 20.008-.998 8.115-5.548.498.489 6.858s-3.378 2.818-8.661 2.818v-17.79l14.723-.5h-.005Z"></path><path fill="#4FF7D1" d="m53.945 16.618-27.004 9.245V16.99l24.357-6.184 2.647 5.812Z"></path><path fill="#4FF7D1" d="m53.948 16.616-7.44 2.499V1.12s7.44 8.13 7.44 15.496ZM37.324 15.424l2.65-5.252 4.036 4.898M26.941 16.99h5.987l1.208 16.23a29.01 29.01 0 0 1-7.19.903V16.99h-.005Z"></path></g><mask id="c" width="29" height="48" x="0" y="0" maskUnits="userSpaceOnUse" style="mask-type:luminance"><path fill="#fff" d="M0 .621h28.004v47.213H0V.62Z"></path></mask><g mask="url(#c)"><path fill="#1EBCA1" d="M28.004 11.464c-20.79 0-17.082 8.649-17.082 8.649.184 5.51 2.23 17.776 2.908 19.077.679 1.302 4.28 5.033 7.1 6.464 0 0 1.018-1.087 1.641-2.045.788.938 4.874 4.23 5.433 4.23V11.464Z"></path><path fill="#1EBCA1" d="M10.667 18.616c0 .888.254 1.492.254 1.492.185 5.51 2.23 17.775 2.909 19.077.678 1.302 4.28 5.033 7.1 6.464 0 0 1.017-1.087 1.64-2.045.789.938 4.875 4.23 5.434 4.23V18.616H10.667Z"></path><path fill="url(#d)" d="m13.282 20.008.998 8.115 5.547.498-.489 6.858s3.378 2.818 8.662 2.818v-17.79l-14.723-.5h.005Z"></path><path fill="#4FF7D1" d="m1.999 16.618 27.003 9.245V16.99L4.646 10.806l-2.647 5.812Z"></path><path fill="#4FF7D1" d="m1.996 16.616 7.439 2.499V1.12s-7.44 8.13-7.44 15.496ZM18.62 15.424l-2.65-5.252-4.035 4.898M29.002 16.99h-5.987l-1.207 16.23c2.36.603 4.774.903 7.189.903V16.99h.005Z"></path></g><path fill="#4FF7D1" d="M77.845 19.474v23.372h-7.189V19.474l-7.988-.997V12.67h23.125v5.806l-7.948.997ZM88.073 30.81V12.67h7.19v18.14c0 3.402 1.59 5.756 5.123 5.756 3.532 0 5.039-2.399 5.039-5.8V12.67h7.189v18.095c0 7.282-4.136 12.644-12.318 12.644-8.182 0-12.228-5.058-12.228-12.6h.005ZM131.997 29.07l6.805 13.776h-7.708l-5.857-12.384h-1.936v12.384h-7.15v-30.17h10.248c6.246 0 9.389 3.272 9.389 8.983 0 3.356-1.376 5.93-3.791 7.411Zm-8.701-10.115v5.582h2.499c1.637 0 2.585-1.133 2.585-2.833 0-1.701-.993-2.749-2.585-2.749h-2.499ZM148.536 23.529l3.747 1.481c3.876 1.611 6.156 4.23 6.156 8.719 0 6.105-4.266 9.68-10.248 9.68-8.526 0-10.078-5.625-9.818-10.03h6.805c-.085 1.92.644 3.796 3.013 3.796 1.637 0 2.844-.918 2.844-2.658 0-1.74-1.207-2.529-3.143-3.272-1.507-.609-3.013-1.177-4.65-2.005-3.013-1.571-4.61-4.534-4.61-8.195 0-5.277 3.787-8.938 9.604-8.938 7.02 0 9.559 4.055 9.26 9.417h-6.63c.045-1.875-.903-3.182-2.585-3.182-1.681 0-2.454 1.002-2.454 2.27 0 1.266.688 2.134 2.714 2.922l-.005-.005ZM175.447 12.107c9.734 0 15.806 6.759 15.806 15.567s-6.032 15.74-15.591 15.74c-9.56 0-15.676-6.758-15.676-15.61 0-8.854 6.286-15.697 15.456-15.697h.005Zm.175 24.505c5.253 0 8.097-3.926 8.097-8.854 0-4.927-3.013-8.852-8.137-8.852-5.124 0-8.053 3.925-8.053 8.853 0 4.927 3.144 8.852 8.098 8.852h-.005Z"></path><defs><linearGradient id="b" x1="42.662" x2="27.939" y1="-45.879" y2="-45.879" gradientUnits="userSpaceOnUse"><stop stop-color="#1D2B33"></stop><stop offset="1" stop-color="#121B24"></stop></linearGradient><linearGradient id="d" x1="13.282" x2="28.005" y1="-45.879" y2="-45.879" gradientUnits="userSpaceOnUse"><stop stop-color="#1D2B33"></stop><stop offset="1" stop-color="#121B24"></stop></linearGradient></defs></svg>