<svg width="256" height="256" viewBox="0 0 256 256" fill="none" xmlns="http://www.w3.org/2000/svg">
<rect width="256" height="256" fill="#EFF1F5" rx="30"/>
<rect x="60.0452" y="174" width="132.873" height="41.2651" fill="#4C4F69"/>
<path d="M80.2651 194.633C80.2651 206.028 71.0276 215.265 59.6325 215.265C48.2375 215.265 39 206.028 39 194.633C39 183.237 48.2375 174 59.6325 174C71.0276 174 80.2651 183.237 80.2651 194.633Z" fill="#4C4F69"/>
<path d="M214.789 194.633C214.789 206.028 205.552 215.265 194.157 215.265C182.762 215.265 173.524 206.028 173.524 194.633C173.524 183.237 182.762 174 194.157 174C205.552 174 214.789 183.237 214.789 194.633Z" fill="#4C4F69"/>
<rect x="61.0452" y="107.867" width="45.3916" height="41.2651" fill="#04A5E5"/>
<rect x="151.828" y="107.867" width="45.3916" height="41.2651" fill="#04A5E5"/>
<circle cx="61.0452" cy="128.5" r="20.6325" fill="#04A5E5"/>
<circle cx="61.0452" cy="128.5" r="20.6325" fill="#04A5E5"/>
<circle cx="105.611" cy="128.5" r="20.6325" fill="#04A5E5"/>
<circle cx="150.178" cy="128.5" r="20.6325" fill="#04A5E5"/>
<circle cx="194.744" cy="128.5" r="20.6325" fill="#04A5E5"/>
<circle cx="61.0452" cy="62.6325" r="20.6325" fill="#8839EF"/>
<circle cx="105.611" cy="62.6325" r="20.6325" fill="#8839EF"/>
<circle cx="150.178" cy="62.6325" r="20.6325" fill="#8839EF"/>
<circle cx="194.744" cy="62.6325" r="20.6325" fill="#8839EF"/>
</svg>
